<svg width="36" height="36" viewBox="0 0 36 36" fill="none" xmlns="http://www.w3.org/2000/svg">
<rect x="0.000244141" width="36.0001" height="36.0001" rx="4" fill="white" fill-opacity="0.1"/>
<path fill-rule="evenodd" clip-rule="evenodd" d="M28.1432 23.0568C28.1432 23.0568 26.6772 25.5974 22.8659 25.72C22.8659 25.72 22.2451 24.9663 21.7277 24.3011C23.9869 23.6522 24.8492 22.2154 24.8492 22.2154C24.1421 22.6889 23.4695 23.0219 22.8659 23.2493C22.0036 23.6173 21.1758 23.8625 20.3653 24.003C18.7096 24.3182 17.192 24.2305 15.8986 23.9852C14.9155 23.7927 14.0705 23.5124 13.3635 23.2315C12.9668 23.0739 12.5356 22.8814 12.1045 22.6361L12.0369 22.5969L12.0168 22.5876L11.9493 22.5484L11.8802 22.4957L11.3974 22.1976C11.3974 22.1976 12.2252 23.6002 14.4154 24.2654C13.8981 24.9314 13.26 25.72 13.26 25.72C9.44865 25.5974 8 23.0568 8 23.0568C8 17.4139 10.4834 12.8405 10.4834 12.8405C12.9668 10.9481 15.3295 11.0001 15.3295 11.0001L15.5019 11.2105C12.3977 12.1217 10.9662 13.5065 10.9662 13.5065C10.9662 13.5065 11.3457 13.2961 11.9838 12.9981C13.8291 12.1745 15.295 11.947 15.8986 11.8943L16.1917 11.8593C17.2437 11.7189 18.4337 11.6839 19.6754 11.8237C21.3138 12.0169 23.0729 12.5075 24.8664 13.5065C24.8664 13.5065 23.504 12.1923 20.5722 11.2811L20.8136 11.0001C20.8136 11.0001 23.1764 10.9481 25.6597 12.8405C25.6597 12.8405 28.1432 17.4139 28.1432 23.0568ZM13.0875 19.4817C13.0875 18.4128 13.8635 17.5365 14.8466 17.5365C15.8296 17.5365 16.6229 18.4128 16.6057 19.4817C16.6057 20.5505 15.8296 21.4268 14.8466 21.4268C13.8808 21.4268 13.0875 20.5505 13.0875 19.4817ZM19.3822 19.4817C19.3822 18.4128 20.1583 17.5365 21.1413 17.5365C22.1244 17.5365 22.9004 18.4128 22.9004 19.4817C22.9004 20.5505 22.1244 21.4268 21.1413 21.4268C20.1756 21.4268 19.3822 20.5505 19.3822 19.4817Z" fill="#F5F3F7"/>
</svg>
