<svg width="36" height="36" viewBox="0 0 36 36" fill="none" xmlns="http://www.w3.org/2000/svg">
<rect x="6.10352e-05" width="36.0001" height="36.0001" rx="4" fill="white" fill-opacity="0.1"/>
<g clip-path="url(#clip0_11_20699)">
<path d="M26.9998 12.9006C26.3155 13.2044 25.58 13.409 24.8081 13.5012C25.5963 13.0292 26.2016 12.2814 26.486 11.3901C25.749 11.8272 24.9321 12.145 24.0626 12.3163C23.3674 11.5746 22.3747 11.1111 21.2773 11.1111C18.8136 11.1111 17.0032 13.4098 17.5597 15.7959C14.3892 15.6371 11.5775 14.1181 9.69509 11.8094C8.69536 13.5245 9.17662 15.768 10.8754 16.9042C10.2508 16.884 9.66177 16.7128 9.14795 16.4268C9.1061 18.1945 10.3732 19.8484 12.2084 20.2165C11.6713 20.3622 11.0831 20.3963 10.4848 20.2816C10.9699 21.7975 12.3789 22.9003 14.0497 22.9313C12.4455 24.1891 10.4244 24.7509 8.40009 24.5122C10.0888 25.5949 12.0952 26.2265 14.2497 26.2265C21.3346 26.2265 25.3375 20.2428 25.0957 14.876C25.8412 14.3374 26.4883 13.6655 26.9998 12.9006Z" fill="#F5F3F7"/>
</g>
<defs>
<clipPath id="clip0_11_20699">
<rect width="18.5997" height="18.5997" fill="white" transform="translate(8.40015 8.40027)"/>
</clipPath>
</defs>
</svg>
